<svg width="32" height="32" viewBox="0 0 32 32" fill="none" xmlns="http://www.w3.org/2000/svg">
<g clip-path="url(#clip0_53_34661)">
<path opacity="0.1" d="M16 32C24.8366 32 32 24.8366 32 16C32 7.16344 24.8366 0 16 0C7.16344 0 0 7.16344 0 16C0 24.8366 7.16344 32 16 32Z" fill="#1D59FF"/>
<circle cx="16" cy="16" r="9" fill="white"/>
<mask id="mask0_53_34661" style="mask-type:luminance" maskUnits="userSpaceOnUse" x="7" y="7" width="18" height="18">
<path d="M25 7H7V25H25V7Z" fill="white"/>
</mask>
<g mask="url(#mask0_53_34661)">
<path d="M16 7C11.0376 7 7 11.0375 7 15.9999C7 20.9624 11.0376 25 16 25C20.9624 25 25 20.9624 25 15.9999C25 11.0375 20.9624 7 16 7ZM21.0301 13.6315L15.2782 19.3383C14.9398 19.6766 14.3985 19.6993 14.0376 19.3609L10.9925 16.5864C10.6316 16.2481 10.609 15.6842 10.9248 15.3233C11.2632 14.9624 11.8271 14.9398 12.188 15.2781L14.6015 17.4887L19.7444 12.3458C20.1053 11.9849 20.6692 11.9849 21.0301 12.3458C21.391 12.7068 21.391 13.2706 21.0301 13.6315Z" fill="#1D59FF"/>
</g>
</g>
<defs>
<clipPath id="clip0_53_34661">
<rect width="32" height="32" fill="white"/>
</clipPath>
</defs>
</svg>
