<svg width="176" height="50" viewBox="0 0 176 50" fill="none" xmlns="http://www.w3.org/2000/svg">
<mask id="mask0_4020_81904" style="mask-type:luminance" maskUnits="userSpaceOnUse" x="3" y="0" width="47" height="50">
<path d="M49.5041 25.1815C49.5041 38.812 38.4544 49.8617 24.8239 49.8617C15.6711 49.8617 7.68213 44.8792 3.42088 37.4787C7.2463 42.7921 13.4846 46.2523 20.5317 46.2523C32.1688 46.2523 41.6026 36.8187 41.6026 25.1814C41.6026 13.5442 32.1687 4.1106 20.5317 4.1106C13.4846 4.1106 7.2463 7.57081 3.42088 12.8842C7.68213 5.48372 15.6711 0.501221 24.8239 0.501221C38.4544 0.50129 49.5041 11.551 49.5041 25.1815Z" fill="white"/>
</mask>
<g mask="url(#mask0_4020_81904)">
<path d="M49.5041 0.501709H3.42088V49.8621H49.5041V0.501709Z" fill="url(#paint0_linear_4020_81904)"/>
</g>
<mask id="mask1_4020_81904" style="mask-type:luminance" maskUnits="userSpaceOnUse" x="9" y="1" width="40" height="49">
<path d="M9.96904 6.24087C11.9189 5.15268 14.035 4.36789 16.2474 3.92351C24.5513 1.29469 33.8779 3.72413 39.82 10.5811C47.0814 18.9605 47.0814 31.4025 39.82 39.7819C33.8778 46.6389 24.5513 49.0683 16.2474 46.4395C14.035 45.9951 11.9189 45.2103 9.96904 44.1221C14.1356 47.3907 19.3366 49.2493 24.8239 49.2493C38.1164 49.2493 48.8918 38.474 48.8918 25.1815C48.8918 11.889 38.1164 1.11365 24.8239 1.11365C19.3366 1.11365 14.1356 2.97233 9.96904 6.24087Z" fill="white"/>
</mask>
<g mask="url(#mask1_4020_81904)">
<path d="M48.8917 1.11365H9.96904V49.2493H48.8917V1.11365Z" fill="url(#paint1_linear_4020_81904)"/>
</g>
<mask id="mask2_4020_81904" style="mask-type:luminance" maskUnits="userSpaceOnUse" x="1" y="6" width="35" height="39">
<path d="M34.0524 21.7694V25.1815V28.5937H30.6402H26.2538V36.3924H22.8416H19.4295V32.9803V28.5937H11.6306V25.1815V21.7694H19.4293V13.9706H22.8415H26.2536V17.3828V21.7694H34.0524ZM35.7785 36.3924C32.3331 41.0704 26.7873 44.1063 20.5317 44.1063C10.0798 44.1063 1.60695 35.6334 1.60695 25.1815C1.60695 14.7296 10.0798 6.25671 20.5317 6.25671C26.7873 6.25671 32.3331 9.29262 35.7785 13.9707C32.6874 10.4955 28.1826 8.30533 23.1655 8.30533C13.845 8.30533 6.28924 15.8611 6.28924 25.1816C6.28924 34.5021 13.845 42.0578 23.1655 42.0578C28.1826 42.0578 32.6874 39.8676 35.7785 36.3924Z" fill="white"/>
</mask>
<g mask="url(#mask2_4020_81904)">
<path d="M35.7785 6.25671H1.60695V44.1063H35.7785V6.25671Z" fill="url(#paint2_linear_4020_81904)"/>
</g>
<mask id="mask3_4020_81904" style="mask-type:luminance" maskUnits="userSpaceOnUse" x="2" y="6" width="32" height="38">
<path d="M33.6296 22.1921H25.8309V14.3934H19.8519V22.1922H12.0533V28.171H19.8519V35.9697H25.8309V28.1709H33.6296V22.1921ZM30.0223 41.0674C27.8847 41.9903 25.5577 42.4805 23.1655 42.4805C13.6117 42.4805 5.8666 34.7353 5.8666 25.1815C5.8666 15.6277 13.6117 7.88257 23.1655 7.88257C25.5577 7.88257 27.8847 8.3727 30.0223 9.29569C27.196 7.60534 23.9303 6.67944 20.5317 6.67944C10.3131 6.67944 2.02966 14.963 2.02966 25.1815C2.02966 35.4001 10.3131 43.6836 20.5317 43.6836C23.9303 43.6836 27.196 42.7577 30.0223 41.0674Z" fill="white"/>
</mask>
<g mask="url(#mask3_4020_81904)">
<path d="M33.6296 6.67944H2.02966V43.6835H33.6296V6.67944Z" fill="url(#paint3_linear_4020_81904)"/>
</g>
<path d="M54.2453 20.7359C54.2453 19.1661 54.585 17.7698 55.2642 16.5472C55.9434 15.3095 56.8868 14.351 58.0944 13.6717C59.317 12.9774 60.6982 12.6302 62.2378 12.6302C64.1246 12.6302 65.7397 13.1283 67.0831 14.1246C68.4265 15.1208 69.3246 16.4793 69.7774 18.2H65.5208C65.2038 17.5359 64.751 17.0302 64.1623 16.683C63.5887 16.3359 62.9321 16.1623 62.1925 16.1623C61 16.1623 60.034 16.5774 59.2944 17.4076C58.5548 18.2378 58.185 19.3472 58.185 20.7359C58.185 22.1246 58.5548 23.234 59.2944 24.0642C60.034 24.8944 61 25.3095 62.1925 25.3095C62.9321 25.3095 63.5887 25.1359 64.1623 24.7887C64.751 24.4415 65.2038 23.9359 65.5208 23.2717H69.7774C69.3246 24.9925 68.4265 26.351 67.0831 27.3472C65.7397 28.3283 64.1246 28.8189 62.2378 28.8189C60.6982 28.8189 59.317 28.4793 58.0944 27.8C56.8868 27.1057 55.9434 26.1472 55.2642 24.9246C54.585 23.7019 54.2453 22.3057 54.2453 20.7359Z" fill="#1190E0"/>
<path d="M77.1522 25.717H82.2239V28.7057H73.2805V12.8113H77.1522V25.717Z" fill="#1190E0"/>
<path d="M89.0743 12.8113V28.7057H85.2026V12.8113H89.0743Z" fill="#1190E0"/>
<path d="M107.231 28.7057H103.359L96.8839 18.9019V28.7057H93.0122V12.8113H96.8839L103.359 22.6604V12.8113H107.231V28.7057Z" fill="#1190E0"/>
<path d="M115.041 12.8113V28.7057H111.17V12.8113H115.041Z" fill="#1190E0"/>
<path d="M118.323 20.7359C118.323 19.1661 118.662 17.7698 119.341 16.5472C120.021 15.3095 120.964 14.351 122.172 13.6717C123.394 12.9774 124.775 12.6302 126.315 12.6302C128.202 12.6302 129.817 13.1283 131.16 14.1246C132.504 15.1208 133.402 16.4793 133.855 18.2H129.598C129.281 17.5359 128.828 17.0302 128.24 16.683C127.666 16.3359 127.009 16.1623 126.27 16.1623C125.077 16.1623 124.111 16.5774 123.372 17.4076C122.632 18.2378 122.262 19.3472 122.262 20.7359C122.262 22.1246 122.632 23.234 123.372 24.0642C124.111 24.8944 125.077 25.3095 126.27 25.3095C127.009 25.3095 127.666 25.1359 128.24 24.7887C128.828 24.4415 129.281 23.9359 129.598 23.2717H133.855C133.402 24.9925 132.504 26.351 131.16 27.3472C129.817 28.3283 128.202 28.8189 126.315 28.8189C124.775 28.8189 123.394 28.4793 122.172 27.8C120.964 27.1057 120.021 26.1472 119.341 24.9246C118.662 23.7019 118.323 22.3057 118.323 20.7359Z" fill="#1190E0"/>
<path d="M137.109 16.8415C137.169 15.2264 137.697 13.9812 138.694 13.1057C139.69 12.2302 141.041 11.7925 142.746 11.7925C143.878 11.7925 144.845 11.9887 145.645 12.3812C146.46 12.7736 147.071 13.3095 147.478 13.9887C147.901 14.668 148.112 15.4302 148.112 16.2755C148.112 17.2717 147.863 18.0868 147.365 18.7208C146.867 19.3397 146.286 19.7623 145.622 19.9887V20.0793C146.482 20.3661 147.161 20.8415 147.66 21.5057C148.158 22.1698 148.407 23.0227 148.407 24.0642C148.407 25 148.188 25.8302 147.75 26.5547C147.328 27.2642 146.701 27.8227 145.871 28.2302C145.056 28.6378 144.082 28.8415 142.95 28.8415C141.139 28.8415 139.69 28.3963 138.603 27.5057C137.531 26.6151 136.965 25.2717 136.905 23.4755H140.663C140.678 24.1397 140.867 24.668 141.229 25.0604C141.592 25.4378 142.12 25.6264 142.814 25.6264C143.403 25.6264 143.856 25.4604 144.173 25.1283C144.505 24.7812 144.671 24.3283 144.671 23.7698C144.671 23.0453 144.437 22.5246 143.969 22.2076C143.516 21.8755 142.784 21.7095 141.773 21.7095H141.048V18.5623H141.773C142.543 18.5623 143.161 18.434 143.629 18.1774C144.112 17.9057 144.354 17.4302 144.354 16.751C144.354 16.2076 144.203 15.7849 143.901 15.483C143.599 15.1812 143.184 15.0302 142.656 15.0302C142.082 15.0302 141.652 15.2038 141.365 15.551C141.094 15.8981 140.935 16.3283 140.89 16.8415H137.109Z" fill="#40910A"/>
<path d="M157.27 16.6378C157.149 16.0793 156.938 15.6642 156.636 15.3925C156.334 15.1057 155.904 14.9623 155.346 14.9623C154.485 14.9623 153.866 15.3396 153.489 16.0944C153.112 16.834 152.915 18.0113 152.9 19.6264C153.232 19.0981 153.708 18.683 154.327 18.3812C154.961 18.0793 155.655 17.9283 156.41 17.9283C157.889 17.9283 159.074 18.3963 159.965 19.3321C160.87 20.268 161.323 21.5736 161.323 23.2491C161.323 24.351 161.097 25.317 160.644 26.1472C160.206 26.9774 159.557 27.6264 158.697 28.0944C157.851 28.5623 156.848 28.7963 155.685 28.7963C153.361 28.7963 151.746 28.0717 150.84 26.6227C149.934 25.1585 149.482 23.0604 149.482 20.3283C149.482 17.4604 149.957 15.3321 150.908 13.9434C151.874 12.5397 153.414 11.8378 155.527 11.8378C156.659 11.8378 157.61 12.0642 158.38 12.517C159.165 12.9547 159.753 13.5359 160.146 14.2604C160.553 14.9849 160.795 15.7774 160.87 16.6378H157.27ZM155.482 20.9849C154.832 20.9849 154.289 21.1812 153.851 21.5736C153.429 21.951 153.217 22.4944 153.217 23.2038C153.217 23.9283 153.414 24.4944 153.806 24.9019C154.214 25.3095 154.787 25.5132 155.527 25.5132C156.191 25.5132 156.712 25.317 157.089 24.9246C157.482 24.517 157.678 23.9661 157.678 23.2717C157.678 22.5623 157.489 22.0038 157.112 21.5963C156.734 21.1887 156.191 20.9849 155.482 20.9849Z" fill="#40910A"/>
<path d="M173.566 15.551H166.502V18.6755C166.803 18.3434 167.226 18.0717 167.77 17.8604C168.313 17.6491 168.902 17.5434 169.536 17.5434C170.668 17.5434 171.603 17.8 172.343 18.3132C173.098 18.8264 173.649 19.4906 173.996 20.3057C174.343 21.1208 174.517 22.0038 174.517 22.9547C174.517 24.7208 174.019 26.1246 173.022 27.1661C172.026 28.1925 170.622 28.7057 168.811 28.7057C167.603 28.7057 166.554 28.5019 165.664 28.0944C164.773 27.6717 164.086 27.0906 163.603 26.351C163.12 25.6113 162.856 24.7585 162.811 23.7925H166.592C166.683 24.2604 166.902 24.6529 167.249 24.9698C167.596 25.2717 168.071 25.4227 168.675 25.4227C169.385 25.4227 169.913 25.1963 170.26 24.7434C170.607 24.2906 170.781 23.6868 170.781 22.9321C170.781 22.1925 170.6 21.6264 170.237 21.234C169.875 20.8415 169.347 20.6453 168.653 20.6453C168.139 20.6453 167.717 20.7736 167.385 21.0302C167.053 21.2717 166.834 21.5963 166.728 22.0038H162.992V12.1547H173.566V15.551Z" fill="#40910A"/>
<path d="M60.6202 33.0495V38.6787H59.249V35.3028L57.99 38.6787H56.8834L55.6165 35.2948V38.6787H54.2453V33.0495H55.8651L57.4448 36.9467L59.0084 33.0495H60.6202Z" fill="#5C5C5C"/>
<path d="M65.5114 37.6844H63.4105L63.0737 38.6787H61.6383L63.6751 33.0495H65.2628L67.2996 38.6787H65.8482L65.5114 37.6844ZM65.1586 36.6259L64.4609 34.5651L63.7713 36.6259H65.1586Z" fill="#5C5C5C"/>
<path d="M71.584 38.6787L69.6916 36.1929V38.6787H68.3204V33.0495H69.6916V35.5193L71.568 33.0495H73.1798L70.9987 35.808L73.26 38.6787H71.584Z" fill="#5C5C5C"/>
<path d="M75.6838 33.0495V38.6787H74.3126V33.0495H75.6838Z" fill="#5C5C5C"/>
<path d="M82.1142 38.6787H80.743L78.4496 35.2066V38.6787H77.0784V33.0495H78.4496L80.743 36.5377V33.0495H82.1142V38.6787Z" fill="#5C5C5C"/>
<path d="M87.2458 34.8297C87.1443 34.6426 86.9973 34.5009 86.8048 34.4047C86.6177 34.3031 86.3958 34.2524 86.1392 34.2524C85.6955 34.2524 85.34 34.3994 85.0727 34.6934C84.8055 34.9821 84.6718 35.3696 84.6718 35.8561C84.6718 36.3747 84.8108 36.7809 85.0888 37.075C85.3721 37.3636 85.7597 37.508 86.2515 37.508C86.5883 37.508 86.8716 37.4225 87.1015 37.2514C87.3367 37.0803 87.5078 36.8344 87.6147 36.5137H85.8746V35.5033H88.8576V36.7783C88.756 37.1204 88.5823 37.4385 88.3364 37.7325C88.0958 38.0265 87.7884 38.2644 87.4142 38.4462C87.04 38.6279 86.6177 38.7188 86.1473 38.7188C85.5913 38.7188 85.0941 38.5985 84.6558 38.358C84.2228 38.1121 83.8833 37.7726 83.6374 37.3396C83.3968 36.9066 83.2765 36.4121 83.2765 35.8561C83.2765 35.3001 83.3968 34.8057 83.6374 34.3726C83.8833 33.9343 84.2228 33.5948 84.6558 33.3543C85.0888 33.1084 85.5833 32.9854 86.1392 32.9854C86.8128 32.9854 87.3795 33.1484 87.8392 33.4745C88.3043 33.8006 88.6117 34.2524 88.7614 34.8297H87.2458Z" fill="#5C5C5C"/>
<path d="M95.5263 35.792C95.8524 35.8615 96.1143 36.0245 96.3121 36.2811C96.5099 36.5324 96.6088 36.821 96.6088 37.1471C96.6088 37.6176 96.4431 37.9918 96.1117 38.2698C95.7856 38.5424 95.3285 38.6787 94.7404 38.6787H92.1183V33.0495H94.6522C95.2242 33.0495 95.6706 33.1805 95.9914 33.4425C96.3175 33.7044 96.4805 34.0599 96.4805 34.509C96.4805 34.8404 96.3923 35.1157 96.2159 35.3349C96.0448 35.5541 95.815 35.7064 95.5263 35.792ZM93.4895 35.3269H94.3876C94.6121 35.3269 94.7832 35.2788 94.9008 35.1825C95.0238 35.081 95.0852 34.934 95.0852 34.7415C95.0852 34.5491 95.0238 34.402 94.9008 34.3005C94.7832 34.1989 94.6121 34.1481 94.3876 34.1481H93.4895V35.3269ZM94.4999 37.5721C94.7298 37.5721 94.9062 37.5213 95.0291 37.4198C95.1574 37.3129 95.2216 37.1605 95.2216 36.9627C95.2216 36.7649 95.1547 36.6099 95.0211 36.4976C94.8928 36.3854 94.7137 36.3292 94.4838 36.3292H93.4895V37.5721H94.4999Z" fill="#5C5C5C"/>
<path d="M99.1522 33.0495V36.4174C99.1522 36.7542 99.2351 37.0135 99.4008 37.1953C99.5665 37.377 99.8097 37.4679 100.13 37.4679C100.451 37.4679 100.697 37.377 100.868 37.1953C101.039 37.0135 101.125 36.7542 101.125 36.4174V33.0495H102.496V36.4094C102.496 36.9119 102.389 37.3369 102.175 37.6844C101.961 38.0319 101.673 38.2938 101.309 38.4702C100.951 38.6467 100.55 38.7349 100.106 38.7349C99.6627 38.7349 99.2645 38.6493 98.9116 38.4783C98.5642 38.3018 98.2889 38.0399 98.0857 37.6924C97.8826 37.3396 97.781 36.9119 97.781 36.4094V33.0495H99.1522Z" fill="#5C5C5C"/>
<path d="M105.897 38.7349C105.485 38.7349 105.116 38.668 104.79 38.5344C104.464 38.4007 104.202 38.2029 104.004 37.941C103.812 37.6791 103.71 37.3636 103.699 36.9948H105.159C105.18 37.2033 105.252 37.3636 105.375 37.4759C105.498 37.5828 105.659 37.6363 105.857 37.6363C106.06 37.6363 106.22 37.5908 106.338 37.5C106.455 37.4037 106.514 37.2728 106.514 37.107C106.514 36.9681 106.466 36.8531 106.37 36.7622C106.279 36.6714 106.164 36.5965 106.025 36.5377C105.891 36.4789 105.699 36.4121 105.448 36.3372C105.084 36.225 104.787 36.1127 104.557 36.0005C104.328 35.8882 104.13 35.7225 103.964 35.5033C103.798 35.2841 103.716 34.9981 103.716 34.6453C103.716 34.1214 103.905 33.7124 104.285 33.4184C104.664 33.119 105.159 32.9694 105.768 32.9694C106.388 32.9694 106.888 33.119 107.268 33.4184C107.647 33.7124 107.851 34.1241 107.877 34.6533H106.394C106.383 34.4715 106.316 34.3299 106.193 34.2283C106.07 34.1214 105.913 34.0679 105.72 34.0679C105.554 34.0679 105.421 34.1134 105.319 34.2043C105.218 34.2898 105.167 34.4154 105.167 34.5811C105.167 34.7629 105.252 34.9046 105.424 35.0061C105.595 35.1077 105.862 35.2173 106.225 35.3349C106.589 35.4579 106.883 35.5755 107.107 35.6877C107.337 35.8 107.535 35.963 107.701 36.1769C107.867 36.3907 107.949 36.666 107.949 37.0028C107.949 37.3236 107.867 37.6149 107.701 37.8768C107.54 38.1388 107.305 38.3473 106.995 38.5023C106.685 38.6573 106.319 38.7349 105.897 38.7349Z" fill="#5C5C5C"/>
<path d="M110.565 33.0495V38.6787H109.194V33.0495H110.565Z" fill="#5C5C5C"/>
<path d="M116.996 38.6787H115.625L113.331 35.2066V38.6787H111.96V33.0495H113.331L115.625 36.5377V33.0495H116.996V38.6787Z" fill="#5C5C5C"/>
<path d="M119.762 34.1481V35.2868H121.598V36.3453H119.762V37.5802H121.839V38.6787H118.391V33.0495H121.839V34.1481H119.762Z" fill="#5C5C5C"/>
<path d="M125.167 38.7349C124.755 38.7349 124.386 38.668 124.06 38.5344C123.734 38.4007 123.472 38.2029 123.274 37.941C123.082 37.6791 122.98 37.3636 122.97 36.9948H124.429C124.45 37.2033 124.523 37.3636 124.646 37.4759C124.768 37.5828 124.929 37.6363 125.127 37.6363C125.33 37.6363 125.49 37.5908 125.608 37.5C125.725 37.4037 125.784 37.2728 125.784 37.107C125.784 36.9681 125.736 36.8531 125.64 36.7622C125.549 36.6714 125.434 36.5965 125.295 36.5377C125.161 36.4789 124.969 36.4121 124.718 36.3372C124.354 36.225 124.057 36.1127 123.828 36.0005C123.598 35.8882 123.4 35.7225 123.234 35.5033C123.068 35.2841 122.986 34.9981 122.986 34.6453C122.986 34.1214 123.175 33.7124 123.555 33.4184C123.935 33.119 124.429 32.9694 125.038 32.9694C125.659 32.9694 126.158 33.119 126.538 33.4184C126.918 33.7124 127.121 34.1241 127.147 34.6533H125.664C125.653 34.4715 125.586 34.3299 125.463 34.2283C125.34 34.1214 125.183 34.0679 124.99 34.0679C124.825 34.0679 124.691 34.1134 124.589 34.2043C124.488 34.2898 124.437 34.4154 124.437 34.5811C124.437 34.7629 124.523 34.9046 124.694 35.0061C124.865 35.1077 125.132 35.2173 125.495 35.3349C125.859 35.4579 126.153 35.5755 126.378 35.6877C126.607 35.8 126.805 35.963 126.971 36.1769C127.137 36.3907 127.22 36.666 127.22 37.0028C127.22 37.3236 127.137 37.6149 126.971 37.8768C126.811 38.1388 126.575 38.3473 126.265 38.5023C125.955 38.6573 125.589 38.7349 125.167 38.7349Z" fill="#5C5C5C"/>
<path d="M130.501 38.7349C130.089 38.7349 129.721 38.668 129.395 38.5344C129.068 38.4007 128.806 38.2029 128.609 37.941C128.416 37.6791 128.315 37.3636 128.304 36.9948H129.763C129.785 37.2033 129.857 37.3636 129.98 37.4759C130.103 37.5828 130.263 37.6363 130.461 37.6363C130.664 37.6363 130.825 37.5908 130.942 37.5C131.06 37.4037 131.119 37.2728 131.119 37.107C131.119 36.9681 131.07 36.8531 130.974 36.7622C130.883 36.6714 130.768 36.5965 130.629 36.5377C130.496 36.4789 130.303 36.4121 130.052 36.3372C129.689 36.225 129.392 36.1127 129.162 36.0005C128.932 35.8882 128.734 35.7225 128.569 35.5033C128.403 35.2841 128.32 34.9981 128.32 34.6453C128.32 34.1214 128.51 33.7124 128.889 33.4184C129.269 33.119 129.763 32.9694 130.373 32.9694C130.993 32.9694 131.493 33.119 131.872 33.4184C132.252 33.7124 132.455 34.1241 132.482 34.6533H130.998C130.988 34.4715 130.921 34.3299 130.798 34.2283C130.675 34.1214 130.517 34.0679 130.325 34.0679C130.159 34.0679 130.025 34.1134 129.924 34.2043C129.822 34.2898 129.771 34.4154 129.771 34.5811C129.771 34.7629 129.857 34.9046 130.028 35.0061C130.199 35.1077 130.466 35.2173 130.83 35.3349C131.193 35.4579 131.487 35.5755 131.712 35.6877C131.942 35.8 132.14 35.963 132.305 36.1769C132.471 36.3907 132.554 36.666 132.554 37.0028C132.554 37.3236 132.471 37.6149 132.305 37.8768C132.145 38.1388 131.91 38.3473 131.6 38.5023C131.29 38.6573 130.923 38.7349 130.501 38.7349Z" fill="#5C5C5C"/>
<path d="M137.936 38.7349C137.524 38.7349 137.155 38.668 136.829 38.5344C136.503 38.4007 136.241 38.2029 136.043 37.941C135.851 37.6791 135.749 37.3636 135.739 36.9948H137.198C137.219 37.2033 137.292 37.3636 137.414 37.4759C137.537 37.5828 137.698 37.6363 137.896 37.6363C138.099 37.6363 138.259 37.5908 138.377 37.5C138.494 37.4037 138.553 37.2728 138.553 37.107C138.553 36.9681 138.505 36.8531 138.409 36.7622C138.318 36.6714 138.203 36.5965 138.064 36.5377C137.93 36.4789 137.738 36.4121 137.487 36.3372C137.123 36.225 136.826 36.1127 136.597 36.0005C136.367 35.8882 136.169 35.7225 136.003 35.5033C135.837 35.2841 135.755 34.9981 135.755 34.6453C135.755 34.1214 135.944 33.7124 136.324 33.4184C136.703 33.119 137.198 32.9694 137.807 32.9694C138.428 32.9694 138.927 33.119 139.307 33.4184C139.686 33.7124 139.89 34.1241 139.916 34.6533H138.433C138.422 34.4715 138.355 34.3299 138.232 34.2283C138.109 34.1214 137.952 34.0679 137.759 34.0679C137.594 34.0679 137.46 34.1134 137.358 34.2043C137.257 34.2898 137.206 34.4154 137.206 34.5811C137.206 34.7629 137.292 34.9046 137.463 35.0061C137.634 35.1077 137.901 35.2173 138.264 35.3349C138.628 35.4579 138.922 35.5755 139.147 35.6877C139.376 35.8 139.574 35.963 139.74 36.1769C139.906 36.3907 139.988 36.666 139.988 37.0028C139.988 37.3236 139.906 37.6149 139.74 37.8768C139.58 38.1388 139.344 38.3473 139.034 38.5023C138.724 38.6573 138.358 38.7349 137.936 38.7349Z" fill="#5C5C5C"/>
<path d="M147.608 33.0495V38.6787H146.237V35.3028L144.978 38.6787H143.871L142.604 35.2948V38.6787H141.233V33.0495H142.853L144.433 36.9467L145.996 33.0495H147.608Z" fill="#5C5C5C"/>
<path d="M152.499 37.6844H150.398L150.062 38.6787H148.626L150.663 33.0495H152.251L154.288 38.6787H152.836L152.499 37.6844ZM152.147 36.6259L151.449 34.5651L150.759 36.6259H152.147Z" fill="#5C5C5C"/>
<path d="M158.179 38.6787L157.008 36.5538H156.68V38.6787H155.308V33.0495H157.61C158.054 33.0495 158.43 33.1271 158.74 33.2821C159.056 33.4371 159.291 33.651 159.446 33.9236C159.601 34.1909 159.679 34.4903 159.679 34.8217C159.679 35.1959 159.572 35.53 159.358 35.824C159.149 36.1181 158.839 36.3266 158.428 36.4495L159.727 38.6787H158.179ZM156.68 35.5835H157.53C157.781 35.5835 157.968 35.522 158.091 35.399C158.219 35.2761 158.283 35.1024 158.283 34.8778C158.283 34.664 158.219 34.4956 158.091 34.3726C157.968 34.2497 157.781 34.1882 157.53 34.1882H156.68V35.5835Z" fill="#5C5C5C"/>
<path d="M164.99 33.0495V34.1481H163.498V38.6787H162.127V34.1481H160.636V33.0495H164.99Z" fill="#5C5C5C"/>
<path d="M167.45 34.1481V35.2868H169.286V36.3453H167.45V37.5802H169.527V38.6787H166.079V33.0495H169.527V34.1481H167.45Z" fill="#5C5C5C"/>
<path d="M173.689 38.6787L172.518 36.5538H172.189V38.6787H170.818V33.0495H173.12C173.563 33.0495 173.94 33.1271 174.25 33.2821C174.566 33.4371 174.801 33.651 174.956 33.9236C175.111 34.1909 175.188 34.4903 175.188 34.8217C175.188 35.1959 175.081 35.53 174.868 35.824C174.659 36.1181 174.349 36.3266 173.937 36.4495L175.236 38.6787H173.689ZM172.189 35.5835H173.039C173.291 35.5835 173.478 35.522 173.601 35.399C173.729 35.2761 173.793 35.1024 173.793 34.8778C173.793 34.664 173.729 34.4956 173.601 34.3726C173.478 34.2497 173.291 34.1882 173.039 34.1882H172.189V35.5835Z" fill="#5C5C5C"/>
<defs>
<linearGradient id="paint0_linear_4020_81904" x1="0.0462927" y1="25.1819" x2="64.2333" y2="25.1819" gradientUnits="userSpaceOnUse">
<stop stop-color="#021B8C"/>
<stop offset="0.1533" stop-color="#042B98"/>
<stop offset="0.4529" stop-color="#0955B6"/>
<stop offset="0.8659" stop-color="#1298E6"/>
<stop offset="1" stop-color="#15AFF7"/>
</linearGradient>
<linearGradient id="paint1_linear_4020_81904" x1="0.0463107" y1="25.1815" x2="64.2333" y2="25.1815" gradientUnits="userSpaceOnUse">
<stop stop-color="#021B8C"/>
<stop offset="0.3374" stop-color="#0A58B8"/>
<stop offset="0.6388" stop-color="#1087DA"/>
<stop offset="0.8687" stop-color="#14A4EF"/>
<stop offset="1" stop-color="#15AFF7"/>
</linearGradient>
<linearGradient id="paint2_linear_4020_81904" x1="-3.46643" y1="25.1815" x2="49.5054" y2="25.1815" gradientUnits="userSpaceOnUse">
<stop stop-color="#045304"/>
<stop offset="0.1541" stop-color="#0D5D05"/>
<stop offset="0.4142" stop-color="#277708"/>
<stop offset="0.7464" stop-color="#4FA20C"/>
<stop offset="1" stop-color="#73C710"/>
</linearGradient>
<linearGradient id="paint3_linear_4020_81904" x1="-7.28586" y1="25.1815" x2="43.2263" y2="25.1815" gradientUnits="userSpaceOnUse">
<stop stop-color="#045304"/>
<stop offset="0.1541" stop-color="#0D5D05"/>
<stop offset="0.4142" stop-color="#277708"/>
<stop offset="0.7464" stop-color="#4FA20C"/>
<stop offset="1" stop-color="#73C710"/>
</linearGradient>
</defs>
</svg>
