<svg width="300" height="86" viewBox="0 0 300 86" fill="none" xmlns="http://www.w3.org/2000/svg">
<mask id="mask0_3749_112406" style="mask-type:luminance" maskUnits="userSpaceOnUse" x="5" y="0" width="80" height="86">
<path d="M84.7496 43.1101C84.7496 66.4451 65.8328 85.3619 42.4978 85.3619C26.8285 85.3619 13.1516 76.832 5.85645 64.1626C12.4055 73.259 23.0852 79.1828 35.1497 79.1828C55.0721 79.1828 71.2224 63.0326 71.2224 43.11C71.2224 23.1874 55.072 7.0373 35.1497 7.0373C23.0852 7.0373 12.4055 12.9611 5.85645 22.0575C13.1516 9.38806 26.8285 0.858154 42.4978 0.858154C65.8328 0.858273 84.7496 19.7751 84.7496 43.1101Z" fill="white"/>
</mask>
<g mask="url(#mask0_3749_112406)">
<path d="M84.7496 0.858643H5.85645V85.3623H84.7496V0.858643Z" fill="url(#paint0_linear_3749_112406)"/>
</g>
<mask id="mask1_3749_112406" style="mask-type:luminance" maskUnits="userSpaceOnUse" x="17" y="1" width="67" height="84">
<path d="M17.0667 10.6842C20.4048 8.8212 24.0275 7.47766 27.8151 6.7169C42.0311 2.21644 57.9979 6.37557 68.1707 18.1145C80.602 32.4597 80.602 53.7602 68.1707 68.1055C57.9978 79.8444 42.0311 84.0035 27.8151 79.5031C24.0275 78.7423 20.4048 77.3988 17.0667 75.5358C24.1996 81.1315 33.1037 84.3135 42.4978 84.3135C65.2541 84.3135 83.7012 65.8664 83.7012 43.11C83.7012 20.3536 65.2541 1.90649 42.4978 1.90649C33.1037 1.90649 24.1996 5.08851 17.0667 10.6842Z" fill="white"/>
</mask>
<g mask="url(#mask1_3749_112406)">
<path d="M83.7011 1.90649H17.0667V84.3135H83.7011V1.90649Z" fill="white"/>
</g>
<mask id="mask2_3749_112406" style="mask-type:luminance" maskUnits="userSpaceOnUse" x="2" y="10" width="60" height="66">
<path d="M58.2966 37.2686V43.1101V48.9517H52.4551H44.9456V62.3029H39.1041H33.2626V56.4614V48.9517H19.9112V43.1101V37.2686H33.2624V23.9174H39.1039H44.9454V29.7589V37.2686H58.2966ZM61.2518 62.3029C55.3532 70.3115 45.859 75.5089 35.1497 75.5089C17.2562 75.5089 2.75098 61.0035 2.75098 43.1101C2.75098 25.2168 17.2562 10.7114 35.1497 10.7114C45.859 10.7114 55.3533 15.9088 61.2518 23.9175C55.9599 17.968 48.2477 14.2186 39.6586 14.2186C23.7022 14.2186 10.7669 27.1538 10.7669 43.1103C10.7669 59.0667 23.7022 72.0019 39.6586 72.0019C48.2477 72.0018 55.9599 68.2524 61.2518 62.3029Z" fill="white"/>
</mask>
<g mask="url(#mask2_3749_112406)">
<path d="M61.2518 10.7114H2.75098V75.5089H61.2518V10.7114Z" fill="url(#paint1_linear_3749_112406)"/>
</g>
<mask id="mask3_3749_112406" style="mask-type:luminance" maskUnits="userSpaceOnUse" x="3" y="11" width="55" height="64">
<path d="M57.5728 37.9923H44.2217V24.6411H33.9859V37.9924H20.6349V48.2279H33.9859V61.5792H44.2217V48.2278H57.5728V37.9923ZM51.3972 70.3062C47.7377 71.8863 43.754 72.7254 39.6586 72.7254C23.3027 72.7254 10.0434 59.466 10.0434 43.1101C10.0434 26.7542 23.3027 13.4948 39.6586 13.4948C43.754 13.4948 47.7377 14.3339 51.3972 15.914C46.5588 13.0202 40.968 11.4351 35.1497 11.4351C17.6557 11.4351 3.47461 25.6162 3.47461 43.1101C3.47461 60.604 17.6557 74.7851 35.1497 74.7851C40.968 74.7851 46.5588 73.2 51.3972 70.3062Z" fill="white"/>
</mask>
<g mask="url(#mask3_3749_112406)">
<path d="M57.5728 11.4351H3.47461V74.785H57.5728V11.4351Z" fill="url(#paint2_linear_3749_112406)"/>
</g>
<path d="M92.8665 35.4991C92.8665 32.8116 93.4479 30.4213 94.6107 28.3282C95.7736 26.2092 97.3886 24.5683 99.4559 23.4054C101.549 22.2168 103.914 21.6224 106.549 21.6224C109.779 21.6224 112.544 22.4752 114.844 24.1807C117.144 25.8862 118.682 28.2119 119.457 31.1578H112.17C111.627 30.0208 110.852 29.1551 109.844 28.5607C108.862 27.9664 107.738 27.6692 106.472 27.6692C104.43 27.6692 102.777 28.3799 101.51 29.8011C100.244 31.2224 99.611 33.1217 99.611 35.4991C99.611 37.8765 100.244 39.7758 101.51 41.197C102.777 42.6183 104.43 43.3289 106.472 43.3289C107.738 43.3289 108.862 43.0318 109.844 42.4374C110.852 41.8431 111.627 40.9774 112.17 39.8404H119.457C118.682 42.7863 117.144 45.112 114.844 46.8175C112.544 48.4971 109.779 49.337 106.549 49.337C103.914 49.337 101.549 48.7556 99.4559 47.5927C97.3886 46.404 95.7736 44.7631 94.6107 42.67C93.4479 40.5769 92.8665 38.1865 92.8665 35.4991Z" fill="white"/>
<path d="M132.082 44.0266H140.765V49.1432H125.454V21.9325H132.082V44.0266Z" fill="white"/>
<path d="M152.493 21.9325V49.1432H145.865V21.9325H152.493Z" fill="white"/>
<path d="M183.577 49.1432H176.948L165.862 32.3594V49.1432H159.234V21.9325H165.862L176.948 38.7938V21.9325H183.577V49.1432Z" fill="white"/>
<path d="M196.947 21.9325V49.1432H190.319V21.9325H196.947Z" fill="white"/>
<path d="M202.565 35.4991C202.565 32.8116 203.146 30.4213 204.309 28.3282C205.472 26.2092 207.087 24.5683 209.154 23.4054C211.248 22.2168 213.612 21.6224 216.248 21.6224C219.478 21.6224 222.243 22.4752 224.543 24.1807C226.843 25.8862 228.38 28.2119 229.155 31.1578H221.868C221.326 30.0208 220.55 29.1551 219.542 28.5607C218.561 27.9664 217.436 27.6692 216.17 27.6692C214.129 27.6692 212.475 28.3799 211.209 29.8011C209.943 31.2224 209.309 33.1217 209.309 35.4991C209.309 37.8765 209.943 39.7758 211.209 41.197C212.475 42.6183 214.129 43.3289 216.17 43.3289C217.436 43.3289 218.561 43.0318 219.542 42.4374C220.55 41.8431 221.326 40.9774 221.868 39.8404H229.155C228.38 42.7863 226.843 45.112 224.543 46.8175C222.243 48.4971 219.478 49.337 216.248 49.337C213.612 49.337 211.248 48.7556 209.154 47.5927C207.087 46.404 205.472 44.7631 204.309 42.67C203.146 40.5769 202.565 38.1865 202.565 35.4991Z" fill="white"/>
<path d="M234.726 28.8321C234.83 26.0671 235.734 23.9352 237.439 22.4364C239.145 20.9376 241.458 20.1882 244.378 20.1882C246.316 20.1882 247.97 20.5242 249.339 21.196C250.735 21.8679 251.781 22.7853 252.479 23.9481C253.203 25.111 253.564 26.4159 253.564 27.863C253.564 29.5685 253.138 30.964 252.285 32.0493C251.432 33.1088 250.438 33.8323 249.301 34.2199V34.375C250.773 34.866 251.936 35.68 252.789 36.817C253.642 37.954 254.068 39.414 254.068 41.197C254.068 42.7992 253.694 44.2204 252.944 45.4608C252.221 46.6753 251.148 47.6315 249.727 48.3292C248.331 49.0269 246.665 49.3757 244.727 49.3757C241.626 49.3757 239.145 48.6134 237.284 47.0888C235.45 45.5642 234.481 43.2643 234.377 40.1892H240.812C240.838 41.3262 241.161 42.2307 241.781 42.9025C242.401 43.5486 243.305 43.8716 244.494 43.8716C245.502 43.8716 246.277 43.5873 246.82 43.0188C247.388 42.4245 247.673 41.6493 247.673 40.6931C247.673 39.4528 247.272 38.5612 246.471 38.0186C245.696 37.4501 244.442 37.1658 242.711 37.1658H241.471V31.778H242.711C244.029 31.778 245.088 31.5583 245.889 31.119C246.716 30.6539 247.13 29.8399 247.13 28.677C247.13 27.7468 246.871 27.0232 246.355 26.5064C245.838 25.9896 245.127 25.7311 244.223 25.7311C243.241 25.7311 242.504 26.0283 242.013 26.6227C241.548 27.217 241.277 27.9535 241.199 28.8321H234.726Z" fill="#20BE00"/>
<path d="M269.242 28.4832C269.035 27.5271 268.674 26.8165 268.157 26.3513C267.64 25.8604 266.904 25.6149 265.947 25.6149C264.474 25.6149 263.415 26.2609 262.769 27.5529C262.123 28.8192 261.787 30.8348 261.761 33.5998C262.33 32.6953 263.144 31.9847 264.203 31.4679C265.288 30.951 266.477 30.6926 267.769 30.6926C270.302 30.6926 272.33 31.4937 273.855 33.0959C275.405 34.698 276.181 36.9333 276.181 39.8016C276.181 41.688 275.793 43.3418 275.018 44.7631C274.268 46.1844 273.157 47.2955 271.684 48.0966C270.237 48.8977 268.519 49.2982 266.529 49.2982C262.549 49.2982 259.784 48.0578 258.234 45.5771C256.683 43.0705 255.908 39.4786 255.908 34.8014C255.908 29.8916 256.722 26.248 258.35 23.8706C260.004 21.4674 262.64 20.2658 266.258 20.2658C268.196 20.2658 269.824 20.6534 271.141 21.4286C272.485 22.178 273.493 23.1729 274.165 24.4133C274.863 25.6536 275.276 27.0103 275.405 28.4832H269.242ZM266.18 35.9255C265.069 35.9255 264.139 36.2614 263.389 36.9333C262.666 37.5793 262.304 38.5096 262.304 39.7241C262.304 40.9645 262.64 41.9335 263.312 42.6312C264.009 43.3289 264.991 43.6778 266.258 43.6778C267.395 43.6778 268.286 43.3418 268.932 42.67C269.604 41.9723 269.94 41.0291 269.94 39.8404C269.94 38.6258 269.617 37.6697 268.971 36.972C268.325 36.2743 267.395 35.9255 266.18 35.9255Z" fill="#20BE00"/>
<path d="M297.14 26.6227H285.046V31.9718C285.563 31.4033 286.286 30.9381 287.217 30.5763C288.147 30.2146 289.155 30.0337 290.24 30.0337C292.178 30.0337 293.78 30.473 295.047 31.3516C296.339 32.2302 297.282 33.3672 297.876 34.7626C298.47 36.158 298.768 37.6697 298.768 39.2977C298.768 42.3211 297.915 44.7243 296.209 46.5074C294.504 48.2646 292.101 49.1432 289 49.1432C286.932 49.1432 285.136 48.7943 283.612 48.0966C282.087 47.3731 280.911 46.3782 280.085 45.112C279.258 43.8457 278.805 42.3857 278.728 40.7319H285.201C285.356 41.533 285.731 42.2048 286.325 42.7475C286.92 43.2643 287.733 43.5227 288.767 43.5227C289.982 43.5227 290.886 43.1351 291.48 42.3599C292.075 41.5847 292.372 40.551 292.372 39.259C292.372 37.9927 292.062 37.0237 291.442 36.3518C290.822 35.68 289.917 35.344 288.728 35.344C287.85 35.344 287.126 35.5637 286.558 36.003C285.989 36.4164 285.615 36.972 285.434 37.6697H279.038V20.8084H297.14V26.6227Z" fill="#20BE00"/>
<path d="M103.78 56.5799V66.2169H101.433V60.4374L99.2774 66.2169H97.3829L95.2139 60.4237V66.2169H92.8665V56.5799H95.6395L98.3439 63.2517L101.021 56.5799H103.78Z" fill="white"/>
<path d="M112.154 64.5146H108.557L107.98 66.2169H105.523L109.01 56.5799H111.728L115.215 66.2169H112.73L112.154 64.5146ZM111.55 62.7026L110.355 59.1745L109.175 62.7026H111.55Z" fill="white"/>
<path d="M122.55 66.2169L119.31 61.9612V66.2169H116.963V56.5799H119.31V60.8081L122.522 56.5799H125.282L121.548 61.3023L125.419 66.2169H122.55Z" fill="white"/>
<path d="M129.569 56.5799V66.2169H127.221V56.5799H129.569Z" fill="white"/>
<path d="M140.577 66.2169H138.23L134.304 60.2727V66.2169H131.956V56.5799H134.304L138.23 62.5515V56.5799H140.577V66.2169Z" fill="white"/>
<path d="M149.362 59.6275C149.189 59.3072 148.937 59.0647 148.607 58.8999C148.287 58.726 147.907 58.6391 147.468 58.6391C146.708 58.6391 146.1 58.8908 145.642 59.3941C145.185 59.8883 144.956 60.5518 144.956 61.3847C144.956 62.2724 145.194 62.968 145.67 63.4713C146.155 63.9655 146.818 64.2126 147.66 64.2126C148.237 64.2126 148.722 64.0662 149.115 63.7733C149.518 63.4805 149.811 63.0595 149.994 62.5104H147.015V60.7806H152.122V62.9634C151.948 63.5491 151.65 64.0936 151.229 64.597C150.818 65.1004 150.291 65.5076 149.651 65.8188C149.01 66.13 148.287 66.2855 147.482 66.2855C146.53 66.2855 145.679 66.0796 144.928 65.6678C144.187 65.2468 143.606 64.6656 143.185 63.9243C142.773 63.183 142.567 62.3365 142.567 61.3847C142.567 60.4329 142.773 59.5863 143.185 58.845C143.606 58.0946 144.187 57.5134 144.928 57.1016C145.67 56.6806 146.516 56.4701 147.468 56.4701C148.621 56.4701 149.591 56.7492 150.378 57.3075C151.175 57.8658 151.701 58.6391 151.957 59.6275H149.362Z" fill="white"/>
<path d="M163.538 61.2749C164.097 61.3938 164.545 61.673 164.884 62.1123C165.222 62.5424 165.392 63.0366 165.392 63.5949C165.392 64.4002 165.108 65.0409 164.541 65.5168C163.982 65.9835 163.2 66.2169 162.193 66.2169H157.704V56.5799H162.042C163.021 56.5799 163.785 56.8041 164.335 57.2526C164.893 57.701 165.172 58.3096 165.172 59.0784C165.172 59.6458 165.021 60.1171 164.719 60.4924C164.426 60.8676 164.033 61.1284 163.538 61.2749ZM160.051 60.4786H161.589C161.973 60.4786 162.266 60.3963 162.468 60.2315C162.678 60.0576 162.783 59.806 162.783 59.4765C162.783 59.147 162.678 58.8953 162.468 58.7215C162.266 58.5476 161.973 58.4606 161.589 58.4606H160.051V60.4786ZM161.781 64.3224C162.175 64.3224 162.477 64.2355 162.687 64.0616C162.907 63.8786 163.017 63.6177 163.017 63.2791C163.017 62.9405 162.902 62.6751 162.674 62.4829C162.454 62.2907 162.147 62.1946 161.754 62.1946H160.051V64.3224H161.781Z" fill="white"/>
<path d="M169.746 56.5799V62.3456C169.746 62.9222 169.888 63.3661 170.171 63.6772C170.455 63.9884 170.872 64.144 171.421 64.144C171.97 64.144 172.391 63.9884 172.684 63.6772C172.977 63.3661 173.123 62.9222 173.123 62.3456V56.5799H175.47V62.3319C175.47 63.1922 175.287 63.9198 174.921 64.5146C174.555 65.1095 174.061 65.558 173.439 65.86C172.826 66.162 172.139 66.313 171.379 66.313C170.62 66.313 169.938 66.1666 169.334 65.8737C168.739 65.5717 168.268 65.1232 167.92 64.5284C167.572 63.9243 167.398 63.1922 167.398 62.3319V56.5799H169.746Z" fill="white"/>
<path d="M181.292 66.313C180.587 66.313 179.956 66.1986 179.398 65.9698C178.839 65.741 178.391 65.4024 178.052 64.9539C177.723 64.5055 177.549 63.9655 177.531 63.334H180.029C180.066 63.691 180.189 63.9655 180.4 64.1577C180.61 64.3408 180.885 64.4323 181.223 64.4323C181.571 64.4323 181.846 64.3545 182.047 64.1989C182.248 64.0342 182.349 63.8099 182.349 63.5262C182.349 63.2883 182.267 63.0915 182.102 62.9359C181.946 62.7803 181.75 62.6522 181.512 62.5515C181.283 62.4509 180.953 62.3365 180.523 62.2083C179.901 62.0162 179.393 61.824 179 61.6318C178.606 61.4396 178.267 61.1559 177.984 60.7806C177.7 60.4054 177.558 59.9158 177.558 59.3118C177.558 58.4149 177.883 57.7147 178.533 57.2114C179.183 56.6989 180.029 56.4426 181.072 56.4426C182.134 56.4426 182.99 56.6989 183.64 57.2114C184.289 57.7147 184.637 58.4194 184.683 59.3255H182.143C182.125 59.0143 182.011 58.7718 181.8 58.5979C181.59 58.4149 181.32 58.3234 180.99 58.3234C180.706 58.3234 180.478 58.4011 180.304 58.5567C180.13 58.7032 180.043 58.9182 180.043 59.2019C180.043 59.5131 180.189 59.7556 180.482 59.9295C180.775 60.1034 181.233 60.291 181.855 60.4924C182.477 60.7029 182.981 60.9042 183.365 61.0964C183.759 61.2886 184.097 61.5677 184.381 61.9338C184.665 62.2999 184.806 62.7712 184.806 63.3478C184.806 63.8969 184.665 64.3957 184.381 64.8441C184.106 65.2926 183.704 65.6495 183.173 65.9149C182.642 66.1803 182.015 66.313 181.292 66.313Z" fill="white"/>
<path d="M189.285 56.5799V66.2169H186.938V56.5799H189.285Z" fill="white"/>
<path d="M200.294 66.2169H197.946L194.02 60.2727V66.2169H191.673V56.5799H194.02L197.946 62.5515V56.5799H200.294V66.2169Z" fill="white"/>
<path d="M205.029 58.4606V60.41H208.173V62.2221H205.029V64.3362H208.585V66.2169H202.682V56.5799H208.585V58.4606H205.029Z" fill="white"/>
<path d="M214.282 66.313C213.577 66.313 212.946 66.1986 212.388 65.9698C211.829 65.741 211.381 65.4024 211.042 64.9539C210.713 64.5055 210.539 63.9655 210.521 63.334H213.019C213.056 63.691 213.179 63.9655 213.39 64.1577C213.6 64.3408 213.875 64.4323 214.213 64.4323C214.561 64.4323 214.836 64.3545 215.037 64.1989C215.238 64.0342 215.339 63.8099 215.339 63.5262C215.339 63.2883 215.257 63.0915 215.092 62.9359C214.936 62.7803 214.74 62.6522 214.502 62.5515C214.273 62.4509 213.943 62.3365 213.513 62.2083C212.891 62.0162 212.383 61.824 211.989 61.6318C211.596 61.4396 211.257 61.1559 210.974 60.7806C210.69 60.4054 210.548 59.9158 210.548 59.3118C210.548 58.4149 210.873 57.7147 211.523 57.2114C212.172 56.6989 213.019 56.4426 214.062 56.4426C215.124 56.4426 215.98 56.6989 216.629 57.2114C217.279 57.7147 217.627 58.4194 217.673 59.3255H215.133C215.115 59.0143 215 58.7718 214.79 58.5979C214.579 58.4149 214.309 58.3234 213.98 58.3234C213.696 58.3234 213.467 58.4011 213.294 58.5567C213.12 58.7032 213.033 58.9182 213.033 59.2019C213.033 59.5131 213.179 59.7556 213.472 59.9295C213.765 60.1034 214.223 60.291 214.845 60.4924C215.467 60.7029 215.971 60.9042 216.355 61.0964C216.748 61.2886 217.087 61.5677 217.371 61.9338C217.655 62.2999 217.796 62.7712 217.796 63.3478C217.796 63.8969 217.655 64.3957 217.371 64.8441C217.096 65.2926 216.694 65.6495 216.163 65.9149C215.632 66.1803 215.005 66.313 214.282 66.313Z" fill="white"/>
<path d="M223.414 66.313C222.71 66.313 222.078 66.1986 221.52 65.9698C220.962 65.741 220.513 65.4024 220.174 64.9539C219.845 64.5055 219.671 63.9655 219.653 63.334H222.151C222.188 63.691 222.311 63.9655 222.522 64.1577C222.732 64.3408 223.007 64.4323 223.346 64.4323C223.693 64.4323 223.968 64.3545 224.169 64.1989C224.371 64.0342 224.471 63.8099 224.471 63.5262C224.471 63.2883 224.389 63.0915 224.224 62.9359C224.069 62.7803 223.872 62.6522 223.634 62.5515C223.405 62.4509 223.076 62.3365 222.646 62.2083C222.023 62.0162 221.515 61.824 221.122 61.6318C220.728 61.4396 220.39 61.1559 220.106 60.7806C219.822 60.4054 219.68 59.9158 219.68 59.3118C219.68 58.4149 220.005 57.7147 220.655 57.2114C221.305 56.6989 222.151 56.4426 223.195 56.4426C224.256 56.4426 225.112 56.6989 225.762 57.2114C226.412 57.7147 226.759 58.4194 226.805 59.3255H224.265C224.247 59.0143 224.133 58.7718 223.922 58.5979C223.712 58.4149 223.442 58.3234 223.112 58.3234C222.829 58.3234 222.6 58.4011 222.426 58.5567C222.252 58.7032 222.165 58.9182 222.165 59.2019C222.165 59.5131 222.311 59.7556 222.604 59.9295C222.897 60.1034 223.355 60.291 223.977 60.4924C224.599 60.7029 225.103 60.9042 225.487 61.0964C225.881 61.2886 226.219 61.5677 226.503 61.9338C226.787 62.2999 226.929 62.7712 226.929 63.3478C226.929 63.8969 226.787 64.3957 226.503 64.8441C226.229 65.2926 225.826 65.6495 225.295 65.9149C224.764 66.1803 224.137 66.313 223.414 66.313Z" fill="white"/>
<path d="M236.142 66.313C235.437 66.313 234.806 66.1986 234.248 65.9698C233.689 65.741 233.241 65.4024 232.902 64.9539C232.573 64.5055 232.399 63.9655 232.381 63.334H234.879C234.916 63.691 235.039 63.9655 235.25 64.1577C235.46 64.3408 235.735 64.4323 236.073 64.4323C236.421 64.4323 236.696 64.3545 236.897 64.1989C237.098 64.0342 237.199 63.8099 237.199 63.5262C237.199 63.2883 237.117 63.0915 236.952 62.9359C236.796 62.7803 236.6 62.6522 236.362 62.5515C236.133 62.4509 235.803 62.3365 235.373 62.2083C234.751 62.0162 234.243 61.824 233.85 61.6318C233.456 61.4396 233.117 61.1559 232.834 60.7806C232.55 60.4054 232.408 59.9158 232.408 59.3118C232.408 58.4149 232.733 57.7147 233.383 57.2114C234.033 56.6989 234.879 56.4426 235.922 56.4426C236.984 56.4426 237.84 56.6989 238.49 57.2114C239.139 57.7147 239.487 58.4194 239.533 59.3255H236.993C236.975 59.0143 236.861 58.7718 236.65 58.5979C236.44 58.4149 236.17 58.3234 235.84 58.3234C235.556 58.3234 235.328 58.4011 235.154 58.5567C234.98 58.7032 234.893 58.9182 234.893 59.2019C234.893 59.5131 235.039 59.7556 235.332 59.9295C235.625 60.1034 236.083 60.291 236.705 60.4924C237.327 60.7029 237.831 60.9042 238.215 61.0964C238.609 61.2886 238.947 61.5677 239.231 61.9338C239.515 62.2999 239.656 62.7712 239.656 63.3478C239.656 63.8969 239.515 64.3957 239.231 64.8441C238.956 65.2926 238.554 65.6495 238.023 65.9149C237.492 66.1803 236.865 66.313 236.142 66.313Z" fill="white"/>
<path d="M252.701 56.5799V66.2169H250.354V60.4374L248.198 66.2169H246.304L244.135 60.4237V66.2169H241.787V56.5799H244.561L247.265 63.2517L249.942 56.5799H252.701Z" fill="white"/>
<path d="M261.075 64.5146H257.478L256.901 66.2169H254.444L257.931 56.5799H260.649L264.136 66.2169H261.651L261.075 64.5146ZM260.471 62.7026L259.276 59.1745L258.096 62.7026H260.471Z" fill="white"/>
<path d="M270.798 66.2169L268.794 62.579H268.231V66.2169H265.884V56.5799H269.824C270.583 56.5799 271.228 56.7126 271.759 56.978C272.299 57.2434 272.702 57.6095 272.967 58.0762C273.233 58.5338 273.365 59.0464 273.365 59.6138C273.365 60.2544 273.182 60.8264 272.816 61.3298C272.459 61.8331 271.929 62.19 271.224 62.4005L273.448 66.2169H270.798ZM268.231 60.9179H269.686C270.117 60.9179 270.437 60.8127 270.647 60.6022C270.867 60.3917 270.977 60.0943 270.977 59.7099C270.977 59.3438 270.867 59.0555 270.647 58.845C270.437 58.6345 270.117 58.5293 269.686 58.5293H268.231V60.9179Z" fill="white"/>
<path d="M282.458 56.5799V58.4606H279.905V66.2169H277.557V58.4606H275.004V56.5799H282.458Z" fill="white"/>
<path d="M286.67 58.4606V60.41H289.814V62.2221H286.67V64.3362H290.226V66.2169H284.323V56.5799H290.226V58.4606H286.67Z" fill="white"/>
<path d="M297.351 66.2169L295.346 62.579H294.783V66.2169H292.436V56.5799H296.376C297.136 56.5799 297.781 56.7126 298.312 56.978C298.851 57.2434 299.254 57.6095 299.52 58.0762C299.785 58.5338 299.918 59.0464 299.918 59.6138C299.918 60.2544 299.735 60.8264 299.369 61.3298C299.012 61.8331 298.481 62.19 297.776 62.4005L300 66.2169H297.351ZM294.783 60.9179H296.239C296.669 60.9179 296.989 60.8127 297.2 60.6022C297.419 60.3917 297.529 60.0943 297.529 59.7099C297.529 59.3438 297.419 59.0555 297.2 58.845C296.989 58.6345 296.669 58.5293 296.239 58.5293H294.783V60.9179Z" fill="white"/>
<defs>
<linearGradient id="paint0_linear_3749_112406" x1="82.7871" y1="85.3623" x2="-11.3783" y2="55.8503" gradientUnits="userSpaceOnUse">
<stop offset="0.0686997" stop-color="#C9E7FF"/>
<stop offset="1" stop-color="#ECF5FA"/>
</linearGradient>
<linearGradient id="paint1_linear_3749_112406" x1="2.75098" y1="10.7114" x2="73.4548" y2="31.9234" gradientUnits="userSpaceOnUse">
<stop stop-color="#227E22"/>
<stop offset="1" stop-color="#A8FB3C"/>
</linearGradient>
<linearGradient id="paint2_linear_3749_112406" x1="3.47461" y1="11.4351" x2="69.4311" y2="30.1517" gradientUnits="userSpaceOnUse">
<stop stop-color="#A8FB3C"/>
<stop offset="1" stop-color="#227E22"/>
</linearGradient>
</defs>
</svg>
